<svg width="44" height="48" viewBox="0 0 44 48" fill="none" xmlns="http://www.w3.org/2000/svg">
<path d="M37.037 16.1659C36.8594 16.2856 32.632 18.8117 32.632 24.4127C32.8312 30.8004 37.9668 33.0404 38.0549 33.0404C37.9668 33.1601 37.2796 36.092 35.2438 39.1654C33.6282 41.8127 31.835 44.4819 29.112 44.4819C26.5218 44.4819 25.592 42.7175 22.6033 42.7175C19.3938 42.7175 18.4856 44.4819 16.0283 44.4819C13.3053 44.4819 11.3792 41.6697 9.67555 39.0472C7.46221 35.6148 5.58094 30.2283 5.51452 25.0563C5.46977 22.3156 5.95777 19.6216 7.19655 17.3333C8.94499 14.1387 12.0665 11.9701 15.4753 11.8986C18.0871 11.8038 20.4116 13.8294 22.0056 13.8294C23.5331 13.8294 26.389 11.8986 29.6202 11.8986C31.0149 11.9002 34.7341 12.3526 37.037 16.1659ZM21.7847 11.3514C21.3198 8.84862 22.6033 6.3458 23.7988 4.74928C25.3263 2.81854 27.7389 1.50806 29.8194 1.50806C29.9523 4.01087 29.1105 6.4655 27.6061 8.25323C26.2561 10.184 23.9316 11.6375 21.7847 11.3514Z" fill="black"/>
</svg>
